<mxfile host="Electron" modified="2024-01-06T09:04:56.622Z" agent="Mozilla/5.0 (X11; Linux x86_64) AppleWebKit/537.36 (KHTML, like Gecko) draw.io/22.1.2 Chrome/114.0.5735.289 Electron/25.9.4 Safari/537.36" etag="KLdEFgHBTPMxlmImQTZo" version="22.1.2" type="device">
  <diagram name="Page-1" id="FeZ3v-MQN-1dSdujgbyW">
    <mxGraphModel dx="431" dy="599" grid="1" gridSize="10" guides="1" tooltips="1" connect="1" arrows="1" fold="0" page="1" pageScale="1" pageWidth="827" pageHeight="1169" math="0" shadow="0">
      <root>
        <mxCell id="0" />
        <mxCell id="1" parent="0" />
        <mxCell id="8gvrBVobbRTJL_wqkL-d-37" value="&lt;font style=&quot;font-size: 10px;&quot; face=&quot;Courier New&quot;&gt;state-&amp;gt;Invoke();&lt;/font&gt;" style="shape=note;whiteSpace=wrap;html=1;backgroundOutline=1;darkOpacity=0.05;size=11;" parent="1" vertex="1">
          <mxGeometry x="371" y="467" width="110" height="26" as="geometry" />
        </mxCell>
        <mxCell id="8gvrBVobbRTJL_wqkL-d-38" style="rounded=0;orthogonalLoop=1;jettySize=auto;html=1;endArrow=oval;endFill=0;exitX=0;exitY=0.5;exitDx=0;exitDy=0;exitPerimeter=0;" parent="1" source="8gvrBVobbRTJL_wqkL-d-37" edge="1">
          <mxGeometry relative="1" as="geometry">
            <mxPoint x="310" y="480" as="targetPoint" />
            <mxPoint x="370" y="480" as="sourcePoint" />
          </mxGeometry>
        </mxCell>
        <mxCell id="O_jan2PHB6_ybYsN9cPJ-1" value="Context" style="swimlane;fontStyle=1;align=center;verticalAlign=top;childLayout=stackLayout;horizontal=1;startSize=26;horizontalStack=0;resizeParent=1;resizeParentMax=0;resizeLast=0;collapsible=1;marginBottom=0;whiteSpace=wrap;html=1;" vertex="1" parent="1">
          <mxGeometry x="210" y="440" width="150" height="130" as="geometry" />
        </mxCell>
        <mxCell id="O_jan2PHB6_ybYsN9cPJ-2" value="Request()" style="text;strokeColor=none;fillColor=none;align=left;verticalAlign=top;spacingLeft=4;spacingRight=4;overflow=hidden;rotatable=0;points=[[0,0.5],[1,0.5]];portConstraint=eastwest;whiteSpace=wrap;html=1;" vertex="1" parent="O_jan2PHB6_ybYsN9cPJ-1">
          <mxGeometry y="26" width="150" height="26" as="geometry" />
        </mxCell>
        <mxCell id="O_jan2PHB6_ybYsN9cPJ-3" value="ChangeState(reference)" style="text;strokeColor=none;fillColor=none;align=left;verticalAlign=top;spacingLeft=4;spacingRight=4;overflow=hidden;rotatable=0;points=[[0,0.5],[1,0.5]];portConstraint=eastwest;whiteSpace=wrap;html=1;" vertex="1" parent="O_jan2PHB6_ybYsN9cPJ-1">
          <mxGeometry y="52" width="150" height="26" as="geometry" />
        </mxCell>
        <mxCell id="O_jan2PHB6_ybYsN9cPJ-21" value="HandleA()" style="text;strokeColor=none;fillColor=none;align=left;verticalAlign=top;spacingLeft=4;spacingRight=4;overflow=hidden;rotatable=0;points=[[0,0.5],[1,0.5]];portConstraint=eastwest;whiteSpace=wrap;html=1;" vertex="1" parent="O_jan2PHB6_ybYsN9cPJ-1">
          <mxGeometry y="78" width="150" height="26" as="geometry" />
        </mxCell>
        <mxCell id="O_jan2PHB6_ybYsN9cPJ-22" value="HandleB()" style="text;strokeColor=none;fillColor=none;align=left;verticalAlign=top;spacingLeft=4;spacingRight=4;overflow=hidden;rotatable=0;points=[[0,0.5],[1,0.5]];portConstraint=eastwest;whiteSpace=wrap;html=1;" vertex="1" parent="O_jan2PHB6_ybYsN9cPJ-1">
          <mxGeometry y="104" width="150" height="26" as="geometry" />
        </mxCell>
        <mxCell id="O_jan2PHB6_ybYsN9cPJ-23" value="&lt;font style=&quot;font-size: 10px;&quot;&gt;&lt;font face=&quot;Courier New&quot;&gt;state = reference;&lt;/font&gt;&lt;br&gt;&lt;font style=&quot;&quot; color=&quot;#999999&quot;&gt;Note: &lt;font face=&quot;Courier New&quot;&gt;reference&lt;/font&gt;&lt;/font&gt;&lt;/font&gt;&lt;font color=&quot;#999999&quot;&gt;&lt;font style=&quot;font-size: 10px;&quot;&gt;&amp;nbsp;may be a&amp;nbsp;&lt;/font&gt;&lt;font style=&quot;font-size: 10px;&quot;&gt;pointer to&lt;/font&gt;&lt;font style=&quot;font-size: 10px;&quot;&gt; &lt;/font&gt;&lt;font style=&quot;font-size: 10px;&quot; face=&quot;Courier New&quot;&gt;HandleA()&lt;/font&gt;&lt;font style=&quot;font-size: 10px;&quot;&gt; or &lt;/font&gt;&lt;/font&gt;&lt;font style=&quot;font-size: 10px;&quot; face=&quot;Courier New&quot;&gt;&lt;font color=&quot;#999999&quot;&gt;HandleB()&lt;/font&gt;&lt;br&gt;&lt;/font&gt;" style="shape=note;whiteSpace=wrap;html=1;backgroundOutline=1;darkOpacity=0.05;size=11;align=left;verticalAlign=top;spacing=0;spacingBottom=0;spacingLeft=7;" vertex="1" parent="1">
          <mxGeometry x="371" y="500" width="129" height="70" as="geometry" />
        </mxCell>
        <mxCell id="O_jan2PHB6_ybYsN9cPJ-24" style="rounded=0;orthogonalLoop=1;jettySize=auto;html=1;endArrow=oval;endFill=0;" edge="1" parent="1">
          <mxGeometry relative="1" as="geometry">
            <mxPoint x="350" y="506" as="targetPoint" />
            <mxPoint x="371" y="506" as="sourcePoint" />
          </mxGeometry>
        </mxCell>
      </root>
    </mxGraphModel>
  </diagram>
</mxfile>
